# xmcd
#
# Track frame offsets: 
#        150
#        13155
#        24935
#        36230
#        48080
#        58977
#        70835
#        80907
#        91207
#        101707
#        112790
#        123397
#        135237
#        146627
#        156965
#        167742
#        180605
#        191012
#        202270
#        212895
#        223197
#
# Disc length: 3116 seconds
#
# Revision: 2
# Processed by: cddbd v1.5.2PL0 Copyright (c) Steve Scherf et al.
# Submitted via: ExactAudioCopy v0.90b4
#
DISCID=360c2a15
DTITLE=Robert Johnson - Charly Blues Masterworks Vol.13 [CD2]
DYEAR=1996
DGENRE=Blues
TTITLE0=Preaching Blues (Up Jumped The Devil)
TTITLE1=If I Had Posession Over Judgement Day
TTITLE2=Stones In My Passway
TTITLE3=I'm A Steady Rollin' Man
TTITLE4=From Four Till Late
TTITLE5=Hellhound On My Trail
TTITLE6=Little Queen Of Spades
TTITLE7=Little Queen Of Spades
TTITLE8=Malted Milk
TTITLE9=Drunken Hearted Man
TTITLE10=Drunken Hearted Man
TTITLE11=Me And The Devil Blues
TTITLE12=Me And The Devil Blues
TTITLE13=Stop Breakin' Down Blues
TTITLE14=Stop Breakin' Down Blues
TTITLE15=Traveling Riverside Blues
TTITLE16=Honeymoon Blues
TTITLE17=Love In Vain
TTITLE18=Love In Vain
TTITLE19=Milkcow's Calf Blues
TTITLE20=Milkcow's Calf Blues
EXTD=
EXTT0=
EXTT1=
EXTT2=
EXTT3=
EXTT4=
EXTT5=
EXTT6=
EXTT7=
EXTT8=
EXTT9=
EXTT10=
EXTT11=
EXTT12=
EXTT13=
EXTT14=
EXTT15=
EXTT16=
EXTT17=
EXTT18=
EXTT19=
EXTT20=
PLAYORDER=
